# Blender v2.79 (sub 0) OBJ File: 'buildings.blend'
# www.blender.org
mtllib building_3.mtl
o Building_3_Cube.002
v 4.401045 -0.084613 -4.331227
v 4.401045 -0.084613 4.331226
v -4.401045 -0.084613 4.331226
v -4.401043 -0.084613 -4.331229
v 4.731287 -0.084613 -3.719841
v 4.731287 -0.084613 3.719842
v 3.926121 -0.084613 -4.632067
v -3.926116 -0.084613 -4.632068
v 4.401045 0.755100 -4.331226
v 3.926119 -0.084613 4.632066
v -3.926120 -0.084613 4.632065
v 4.401044 0.755100 4.331228
v -4.731287 -0.084613 3.719840
v -4.731286 -0.084613 -3.719846
v -4.401045 0.755100 4.331225
v -4.401043 0.755100 -4.331228
v 3.926122 0.755100 -4.632066
v -3.926117 0.755100 -4.632067
v -4.731287 0.755100 3.719840
v -4.731287 0.755100 -3.719845
v 3.926116 0.755100 4.632067
v -3.926122 0.755100 4.632066
v 4.731287 0.755100 -3.719839
v 4.731287 0.755100 3.719845
v -4.401046 0.755100 3.719840
v -4.401042 0.755100 -3.719845
v -3.926117 0.755100 -4.331228
v -3.926120 0.755100 4.331225
v -3.926119 0.755100 3.719841
v -3.926116 0.755100 -3.719844
v 4.400719 0.755100 3.719845
v 4.396756 0.755100 -3.719839
v 3.905616 0.755100 -4.331226
v 3.925430 0.755100 4.331228
v 3.904928 0.755100 -4.632066
v 3.907014 0.755100 -3.719840
v 3.924031 0.755100 3.719845
v -3.926119 2.015452 3.719841
v -3.926116 2.015452 -3.719844
v 3.907014 2.015452 -3.719840
v 3.924031 2.015452 3.719845
vn -0.5351 0.0000 -0.8448
vn 0.5351 0.0000 -0.8448
vn 0.0000 0.0000 -1.0000
vn -0.8798 -0.0000 -0.4753
vn -0.8798 0.0000 0.4753
vn -1.0000 -0.0000 -0.0000
vn -0.5351 -0.0000 0.8448
vn 0.5351 -0.0000 0.8448
vn -0.0000 -0.0000 1.0000
vn 0.8798 -0.0000 0.4753
vn 0.8798 0.0000 -0.4753
vn 1.0000 0.0000 0.0000
vn 0.0000 1.0000 -0.0000
vn 1.0000 0.0000 -0.0023
usemtl Material
s off
f 18//1 8//1 4//1 16//1
f 9//2 1//2 7//2 17//2
f 17//3 7//3 8//3 18//3 35//3
f 14//4 20//4 16//4 4//4
f 3//5 15//5 19//5 13//5
f 13//6 19//6 20//6 14//6
f 11//7 22//7 15//7 3//7
f 2//8 12//8 21//8 10//8
f 10//9 21//9 22//9 11//9
f 6//10 24//10 12//10 2//10
f 1//11 9//11 23//11 5//11
f 5//12 23//12 24//12 6//12
f 18//13 27//13 33//13 35//13
f 16//13 26//13 30//13 27//13
f 20//13 19//13 25//13 26//13
f 19//13 15//13 25//13
f 15//13 22//13 28//13
f 39//13 38//13 41//13 40//13
f 26//13 16//13 20//13
f 26//13 25//13 29//13 30//13
f 25//13 15//13 28//13 29//13
f 28//13 22//13 21//13 34//13
f 27//13 30//13 36//13 33//13
f 29//13 28//13 34//13 37//13
f 27//13 18//13 16//13
f 29//9 37//9 41//9 38//9
f 31//13 12//13 24//13
f 32//13 31//13 24//13 23//13
f 9//13 32//13 23//13
f 37//13 34//13 12//13 31//13
f 34//13 21//13 12//13
f 36//13 37//13 31//13 32//13
f 33//13 36//13 32//13 9//13
f 35//13 33//13 9//13 17//13
f 37//14 36//14 40//14 41//14
f 30//6 29//6 38//6 39//6
f 36//3 30//3 39//3 40//3
