# Blender v2.79 (sub 0) OBJ File: 'buildings.blend'
# www.blender.org
mtllib building_1.mtl
o Building_1_Cube
v 4.731287 -0.084613 -4.632066
v 4.731287 -0.084613 4.632066
v -4.731287 -0.084613 4.632065
v -4.731285 -0.084613 -4.632069
v 4.731289 11.390086 -4.632064
v 4.731285 11.390086 4.632069
v -4.731288 11.390086 4.632064
v -4.731287 11.390086 -4.632067
v 4.731287 -0.084613 -3.719841
v 4.731287 -0.084613 3.719842
v 3.926121 -0.084613 -4.632067
v -3.926116 -0.084613 -4.632068
v 4.731287 1.710943 -4.632066
v 4.731288 3.506499 -4.632065
v 3.926119 -0.084613 4.632066
v -3.926120 -0.084613 4.632065
v 4.731286 1.710943 4.632068
v 4.731285 3.506499 4.632069
v -4.731287 -0.084613 3.719840
v -4.731286 -0.084613 -3.719846
v -4.731287 1.710943 4.632065
v -4.731287 3.506499 4.632064
v -4.731286 1.710943 -4.632068
v -4.731286 3.506499 -4.632067
v 4.731287 11.390086 -3.708181
v 4.731286 11.390086 3.708191
v 4.026692 11.390086 -4.632065
v -4.026684 11.390086 -4.632066
v 4.026681 11.390086 4.632068
v -4.026691 11.390086 4.632066
v -4.731287 11.390086 3.708182
v -4.731287 11.390086 -3.708189
v 3.926123 3.506499 -4.632066
v -3.926117 3.506499 -4.632067
v 3.926122 1.710943 -4.632066
v -3.926117 1.710943 -4.632067
v -4.731287 1.710943 3.719840
v -4.731287 1.710943 -3.719845
v -4.731287 3.506499 3.719840
v -4.731287 3.506499 -3.719845
v 3.926116 1.710943 4.632067
v -3.926122 1.710943 4.632066
v 3.926115 3.506499 4.632068
v -3.926123 3.506499 4.632066
v 4.731287 1.710943 -3.719839
v 4.731287 1.710943 3.719845
v 4.731287 3.506499 -3.719838
v 4.731286 3.506499 3.719848
v 3.882055 10.977747 -3.589087
v 3.882052 10.977747 3.589092
v -3.882053 10.977747 -3.589089
v -3.882056 10.977747 3.589088
v 1.577096 -0.084613 -1.544023
v -1.577095 -0.084613 -1.544023
v 1.577096 -0.084613 1.544022
v -1.577095 -0.084613 1.544021
v 4.191603 11.359083 -4.000982
v 4.191600 11.359083 4.000987
v -4.191601 11.359083 -4.000984
v -4.191604 11.359083 4.000983
vn 0.0000 -1.0000 -0.0000
vn 0.0303 0.9993 -0.0231
vn 1.0000 0.0000 0.0000
vn -0.0000 -0.0000 1.0000
vn -1.0000 -0.0000 -0.0000
vn 0.0000 0.0000 -1.0000
vn -0.0303 0.9993 -0.0231
vn 0.0000 0.9988 -0.0491
vn -0.0303 0.9993 0.0231
vn -0.0574 0.9984 0.0000
vn -0.0000 0.9988 0.0491
vn 0.0000 1.0000 0.0000
vn 0.0303 0.9993 0.0231
vn 0.0574 0.9984 0.0000
vn -0.7764 0.6302 -0.0000
vn 0.7764 0.6302 0.0000
vn -0.0000 0.7338 0.6794
vn 0.0000 0.7338 -0.6794
usemtl Material
s off
f 56//1 16//1 3//1 19//1
f 60//2 31//2 7//2 30//2
f 48//3 26//3 6//3 18//3
f 44//4 30//4 7//4 22//4
f 40//5 32//5 8//5 24//5
f 36//6 12//6 4//6 23//6
f 28//6 34//6 24//6 8//6
f 34//6 36//6 23//6 24//6
f 5//6 14//6 33//6 27//6
f 27//6 33//6 34//6 28//6
f 14//6 13//6 35//6 33//6
f 33//6 35//6 36//6 34//6
f 13//6 1//6 11//6 35//6
f 35//6 11//6 12//6 36//6
f 20//5 38//5 23//5 4//5
f 38//5 40//5 24//5 23//5
f 3//5 21//5 37//5 19//5
f 19//5 37//5 38//5 20//5
f 21//5 22//5 39//5 37//5
f 37//5 39//5 40//5 38//5
f 22//5 7//5 31//5 39//5
f 39//5 31//5 32//5 40//5
f 16//4 42//4 21//4 3//4
f 42//4 44//4 22//4 21//4
f 2//4 17//4 41//4 15//4
f 15//4 41//4 42//4 16//4
f 17//4 18//4 43//4 41//4
f 41//4 43//4 44//4 42//4
f 18//4 6//4 29//4 43//4
f 43//4 29//4 30//4 44//4
f 10//3 46//3 17//3 2//3
f 46//3 48//3 18//3 17//3
f 1//3 13//3 45//3 9//3
f 9//3 45//3 46//3 10//3
f 13//3 14//3 47//3 45//3
f 45//3 47//3 48//3 46//3
f 14//3 5//3 25//3 47//3
f 47//3 25//3 26//3 48//3
f 26//7 58//7 29//7 6//7
f 58//8 60//8 30//8 29//8
f 5//9 27//9 57//9 25//9
f 25//10 57//10 58//10 26//10
f 27//11 28//11 59//11 57//11
f 49//12 51//12 52//12 50//12
f 28//13 8//13 32//13 59//13
f 59//14 32//14 31//14 60//14
f 12//1 54//1 20//1 4//1
f 54//1 56//1 19//1 20//1
f 1//1 9//1 53//1 11//1
f 11//1 53//1 54//1 12//1
f 9//1 10//1 55//1 53//1
f 53//1 55//1 56//1 54//1
f 10//1 2//1 15//1 55//1
f 55//1 15//1 16//1 56//1
f 49//15 50//15 58//15 57//15
f 52//16 51//16 59//16 60//16
f 51//17 49//17 57//17 59//17
f 50//18 52//18 60//18 58//18
